<svg width="28" height="28" viewBox="0 0 28 28" fill="none" xmlns="http://www.w3.org/2000/svg">
<path d="M9.33331 6.99998V6.06665C9.33331 4.00165 9.33331 2.33331 13.0666 2.33331H14.9333C18.6666 2.33331 18.6666 4.00165 18.6666 6.06665V6.99998" stroke="#0047FF" stroke-width="2" stroke-miterlimit="10" stroke-linecap="round" stroke-linejoin="round"/>
<path d="M9.33335 25.6667H18.6667C23.3567 25.6667 24.1967 23.7883 24.4417 21.5017L25.3167 12.1683C25.6317 9.32167 24.815 7 19.8334 7H8.16669C3.18502 7 2.36835 9.32167 2.68335 12.1683L3.55835 21.5017C3.80335 23.7883 4.64336 25.6667 9.33335 25.6667Z" stroke="#0047FF" stroke-width="2" stroke-miterlimit="10" stroke-linecap="round" stroke-linejoin="round"/>
<path d="M25.2583 12.8333C22.5633 14.7933 19.4833 15.96 16.3333 16.3567" stroke="#0047FF" stroke-width="1.5" stroke-miterlimit="10" stroke-linecap="round" stroke-linejoin="round"/>
<path d="M3.05664 13.1483C5.68164 14.945 8.64497 16.03 11.6666 16.3683" stroke="#0047FF" stroke-width="1.5" stroke-miterlimit="10" stroke-linecap="round" stroke-linejoin="round"/>
<path d="M16.3334 15.1667V16.3333C16.3334 16.345 16.3334 16.345 16.3334 16.3567C16.3334 17.6283 16.3217 18.6667 14 18.6667C11.69 18.6667 11.6667 17.64 11.6667 16.3683V15.1667C11.6667 14 11.6667 14 12.8334 14H15.1667C16.3334 14 16.3334 14 16.3334 15.1667Z" stroke="#0047FF" stroke-width="2" stroke-miterlimit="10" stroke-linecap="round" stroke-linejoin="round"/>
</svg>
