<svg width="559" height="559" viewBox="0 0 559 559" fill="none" xmlns="http://www.w3.org/2000/svg">
<path d="M268.949 207.403C309.756 207.481 352.36 207.987 394.724 208.185C395.061 208.185 395.385 208.319 395.623 208.558C395.862 208.796 395.996 209.12 395.996 209.457C395.996 209.794 395.862 210.118 395.623 210.356C395.385 210.595 395.061 210.729 394.724 210.729C352.282 210.93 307.422 211.484 266.847 211.514C266.298 211.516 265.771 211.301 265.38 210.915C264.989 210.53 264.766 210.006 264.759 209.457V138.657C264.755 138.38 264.807 138.105 264.91 137.849C265.013 137.592 265.166 137.358 265.36 137.161C265.555 136.963 265.786 136.807 266.041 136.699C266.296 136.592 266.57 136.536 266.847 136.536C301.908 136.536 405.384 136.622 431.682 136.776C431.928 136.777 432.172 136.826 432.399 136.921C432.626 137.016 432.831 137.155 433.005 137.33C433.178 137.504 433.315 137.712 433.408 137.939C433.501 138.167 433.548 138.411 433.546 138.657L432.945 185.124C432.945 185.454 432.814 185.77 432.581 186.003C432.348 186.237 432.032 186.368 431.702 186.368C431.372 186.368 431.055 186.237 430.822 186.003C430.589 185.77 430.458 185.454 430.458 185.124L429.837 140.555C402.514 140.834 316.019 140.792 268.957 140.778L268.949 207.403Z" fill="#141414"/>
<path d="M150.46 85.2839C149.162 85.2382 147.867 85.456 146.655 85.9242C145.443 86.3924 144.338 87.1013 143.407 88.0081C142.476 88.915 141.738 90.0009 141.239 91.2006C140.739 92.4002 140.487 93.6886 140.499 94.9881C140.439 96.3416 140.651 97.6933 141.122 98.9634C141.593 100.233 142.315 101.396 143.244 102.382C144.173 103.368 145.29 104.158 146.53 104.705C147.769 105.251 149.106 105.544 150.46 105.564C151.819 105.54 153.158 105.246 154.402 104.7C155.645 104.154 156.768 103.365 157.704 102.381C158.64 101.397 159.372 100.237 159.855 98.9677C160.339 97.6985 160.566 96.3457 160.522 94.9881C160.584 93.6666 160.363 92.3472 159.874 91.118C159.385 89.8887 158.639 88.7778 157.687 87.8595C156.735 86.9411 155.598 86.2363 154.352 85.7922C153.105 85.3481 151.779 85.1748 150.46 85.2839ZM150.46 87.7994C151.685 88.0351 152.827 88.5863 153.774 89.3987C154.72 90.2111 155.438 91.2564 155.857 92.4313C156.276 93.6063 156.381 94.8702 156.161 96.098C155.941 97.3258 155.405 98.4751 154.605 99.4322C154.085 100.02 153.445 100.492 152.729 100.815C152.013 101.139 151.237 101.307 150.451 101.309C149.666 101.312 148.889 101.147 148.171 100.828C147.453 100.508 146.811 100.04 146.288 99.4546C145.425 98.5165 144.835 97.3605 144.582 96.1115C144.329 94.8625 144.423 93.5681 144.853 92.3684C145.282 91.1687 146.032 90.1094 147.02 89.305C148.009 88.5007 149.198 87.982 150.46 87.805V87.7994Z" fill="#141414"/>
<path d="M175.101 84.5319C173.803 84.4858 172.508 84.7033 171.296 85.1712C170.083 85.6391 168.979 86.3477 168.048 87.2543C167.117 88.1609 166.379 89.2467 165.879 90.4462C165.38 91.6457 165.128 92.934 165.14 94.2334C165.079 95.587 165.291 96.9391 165.762 98.2095C166.233 99.4799 166.955 100.643 167.884 101.629C168.812 102.616 169.93 103.406 171.17 103.953C172.409 104.499 173.746 104.792 175.101 104.812C176.459 104.788 177.799 104.494 179.043 103.948C180.287 103.401 181.41 102.613 182.346 101.628C183.282 100.644 184.013 99.4833 184.497 98.2137C184.981 96.9442 185.207 95.5912 185.163 94.2334C185.224 92.9121 185.003 91.593 184.513 90.3641C184.024 89.1352 183.279 88.0246 182.327 87.1066C181.375 86.1885 180.238 85.484 178.992 85.04C177.746 84.5961 176.419 84.4229 175.101 84.5319ZM175.101 87.0474C176.326 87.2823 177.469 87.8332 178.416 88.6454C179.363 89.4577 180.082 90.5032 180.5 91.6785C180.919 92.8537 181.024 94.1179 180.804 95.346C180.584 96.5741 180.047 97.7234 179.246 98.6802C178.725 99.2685 178.086 99.7399 177.37 100.063C176.654 100.387 175.878 100.555 175.092 100.557C174.307 100.56 173.529 100.395 172.812 100.076C172.094 99.756 171.452 99.2881 170.928 98.7026C170.066 97.7646 169.476 96.6085 169.223 95.3595C168.97 94.1105 169.064 92.8162 169.493 91.6165C169.923 90.4168 170.673 89.3574 171.661 88.5531C172.65 87.7487 173.839 87.23 175.101 87.053V87.0474Z" fill="#141414"/>
<path d="M199.563 83.7773C198.264 83.7312 196.97 83.9486 195.758 84.4165C194.545 84.8844 193.44 85.5931 192.509 86.4997C191.579 87.4063 190.841 88.4921 190.341 89.6916C189.841 90.8911 189.59 92.1794 189.602 93.4788C189.542 94.8322 189.754 96.1839 190.225 97.454C190.697 98.724 191.418 99.8866 192.347 100.873C193.276 101.859 194.393 102.649 195.632 103.196C196.872 103.743 198.208 104.036 199.563 104.058C200.921 104.034 202.261 103.74 203.505 103.193C204.749 102.647 205.871 101.858 206.808 100.874C207.744 99.8894 208.475 98.7286 208.959 97.4591C209.442 96.1896 209.669 94.8366 209.625 93.4788C209.686 92.1574 209.465 90.8381 208.976 89.6089C208.487 88.3798 207.742 87.2691 206.79 86.3509C205.837 85.4327 204.7 84.7283 203.454 84.2845C202.208 83.8407 200.881 83.6678 199.563 83.7773ZM199.563 86.2928C200.788 86.5277 201.931 87.0786 202.878 87.8908C203.825 88.7031 204.543 89.7486 204.962 90.9238C205.381 92.0991 205.486 93.3633 205.266 94.5914C205.046 95.8195 204.509 96.9688 203.708 97.9256C203.187 98.5139 202.548 98.9853 201.832 99.3088C201.116 99.6324 200.34 99.8007 199.554 99.8029C198.768 99.805 197.991 99.6408 197.274 99.3211C196.556 99.0014 195.914 98.5334 195.39 97.948C194.527 97.0099 193.938 95.8539 193.685 94.6049C193.432 93.3559 193.525 92.0615 193.955 90.8618C194.385 89.6621 195.135 88.6028 196.123 87.7985C197.111 86.9941 198.301 86.4754 199.563 86.2984V86.2928Z" fill="#141414"/>
<path d="M128.57 244.006C128.57 245.157 128.911 246.26 129.518 247.074C130.125 247.887 130.948 248.344 131.807 248.344C132.665 248.344 133.488 247.887 134.095 247.074C134.702 246.26 135.043 245.157 135.043 244.006C135.043 242.856 134.702 241.752 134.095 240.939C133.488 240.125 132.665 239.668 131.807 239.668C130.948 239.668 130.125 240.125 129.518 240.939C128.911 241.752 128.57 242.856 128.57 244.006Z" fill="#141414"/>
<path d="M433.406 255.107C433.824 255.181 434.258 255.143 434.683 254.996C435.107 254.849 435.514 254.596 435.879 254.251C436.245 253.906 436.562 253.476 436.813 252.986C437.064 252.495 437.244 251.954 437.343 251.393C437.441 250.832 437.456 250.262 437.386 249.715C437.317 249.169 437.165 248.657 436.938 248.208C436.712 247.76 436.415 247.383 436.066 247.101C435.717 246.818 435.322 246.635 434.903 246.562C434.484 246.488 434.051 246.526 433.626 246.673C433.202 246.82 432.795 247.073 432.43 247.418C432.064 247.763 431.747 248.193 431.496 248.683C431.245 249.174 431.065 249.715 430.966 250.276C430.868 250.837 430.853 251.407 430.923 251.953C430.992 252.5 431.144 253.012 431.371 253.461C431.597 253.909 431.894 254.286 432.243 254.568C432.592 254.851 432.987 255.034 433.406 255.107Z" fill="#141414"/>
<path d="M417.531 248.118C414.736 251.709 410.362 258.666 410.071 263.543C409.966 265.301 410.407 267.049 411.335 268.546C412.263 270.043 413.632 271.216 415.253 271.903C415.546 272.081 415.896 272.139 416.231 272.064C416.565 271.99 416.858 271.789 417.048 271.503C417.136 271.361 417.195 271.203 417.222 271.037C417.249 270.872 417.243 270.703 417.205 270.54C417.166 270.377 417.096 270.223 416.998 270.087C416.9 269.951 416.776 269.836 416.634 269.748C410.281 264.457 417.69 256.95 420.849 250.094C423.496 244.342 421.766 242.687 417.531 248.118Z" fill="#141414"/>
<path d="M417.671 280.71C422.034 286.437 432.303 283.072 435.768 275.517C435.964 275.243 436.045 274.904 435.993 274.571C435.94 274.239 435.759 273.94 435.489 273.74C435.213 273.542 434.87 273.461 434.535 273.513C434.199 273.565 433.898 273.747 433.695 274.019C428.384 279.33 423.803 279.922 419.049 278.653C418.914 278.563 418.762 278.5 418.603 278.468C418.443 278.436 418.279 278.436 418.12 278.467C417.96 278.499 417.808 278.561 417.673 278.652C417.538 278.742 417.422 278.858 417.331 278.993C417.241 279.128 417.178 279.279 417.146 279.439C417.114 279.598 417.114 279.762 417.145 279.922C417.177 280.081 417.239 280.233 417.33 280.368C417.42 280.504 417.536 280.62 417.671 280.71Z" fill="#141414"/>
<path d="M479.429 242.307C480.11 239.502 479.775 236.547 478.486 233.965C477.196 231.383 475.034 229.341 472.383 228.2C472.383 220.718 464.867 216.16 457.393 215.889C452.446 206.696 439.687 206.123 432.797 213.585C424.186 209.262 416.161 216.674 415.189 226.163C408.71 227.281 407.318 234.925 409.663 241.161C408.648 242.605 408.005 244.276 407.79 246.028C407.576 247.78 407.797 249.557 408.433 251.203C405.523 260.735 404.072 270.652 404.129 280.618C404.006 286.812 405.613 293.754 410.485 297.55C412.12 298.75 413.977 299.613 415.949 300.088C415.579 305.094 415.716 310.124 416.357 315.103C414.303 315.849 412.297 316.719 410.348 317.708C410.028 317.808 409.761 318.032 409.606 318.33C409.452 318.627 409.421 318.974 409.522 319.294C409.623 319.614 409.847 319.88 410.144 320.035C410.441 320.19 410.788 320.22 411.108 320.12C412.766 319.787 418.096 318.722 419.121 318.504C419.591 318.373 420.001 318.082 420.278 317.68C420.555 317.279 420.683 316.793 420.639 316.307C420.108 310.468 419.988 303.014 419.502 300.655C423.441 300.771 427.383 300.531 431.28 299.94C431.588 299.882 431.864 299.711 432.054 299.462C432.244 299.212 432.335 298.901 432.309 298.589C432.283 298.276 432.143 297.984 431.914 297.769C431.686 297.554 431.386 297.431 431.073 297.424C427.176 297.665 423.265 297.514 419.398 296.974C417.027 296.796 414.776 295.864 412.973 294.314C411.171 292.764 409.912 290.677 409.381 288.36C408.657 285.885 408.33 283.31 408.414 280.732C408.8 271.015 409.727 261.327 411.189 251.712C412.422 250.957 413.308 245.826 420.849 237.458C425.6 241.214 432.308 238.296 436.599 234.073C438.191 235.126 440.008 235.79 441.905 236.009C443.801 236.229 445.722 235.998 447.513 235.336C447.92 236.951 448.701 238.448 449.793 239.705C450.885 240.963 452.257 241.946 453.799 242.575C453.625 245.515 454.326 248.441 455.814 250.982C457.302 253.524 459.51 255.568 462.159 256.855C462.911 257.243 463.369 256.824 464.317 256.662C467.324 257.354 470.015 259.025 471.969 261.413C473.367 263.649 471.614 265.606 470.605 266.618C467.428 268.661 463.61 269.466 459.878 268.882C458.69 268.762 457.424 270.19 457.187 270.807C455.185 275.984 450.149 291.398 444.581 295.839C444.022 296.281 441.652 298.316 440.948 298.724C440.621 298.913 440.356 299.192 440.184 299.528C440.012 299.865 439.942 300.243 439.98 300.619L441.778 315.458C441.81 315.844 441.982 316.206 442.261 316.476C442.54 316.745 442.908 316.904 443.295 316.922C446.359 316.804 449.427 316.85 452.485 317.059C452.82 317.095 453.156 317.002 453.425 316.8C453.694 316.597 453.877 316.301 453.936 315.969C453.97 315.633 453.872 315.297 453.664 315.031C453.455 314.766 453.152 314.591 452.818 314.544C450.344 314.164 447.343 313.926 444.875 313.778L444.036 301.508C444.752 301.032 445.441 300.516 446.099 299.962C452.32 298.316 456.27 292.796 459.926 287.575C462.299 287.641 464.621 286.875 466.488 285.409C468.356 283.943 469.651 281.869 470.15 279.547C476.81 277.87 479.513 269.639 476.659 263.594C476.717 262.465 476.476 261.341 475.961 260.335C477.528 259.521 478.891 258.363 479.948 256.947C481.004 255.532 481.726 253.895 482.06 252.161C482.394 250.426 482.33 248.638 481.875 246.932C481.419 245.225 480.583 243.644 479.429 242.307Z" fill="#141414"/>
<path d="M148.987 253.604C147.031 247.587 145.611 244.143 145.044 242.268C142.984 235.596 146.12 235.093 149.423 242.343C151.009 246.136 152.359 250.022 153.465 253.982C153.613 254.453 153.586 254.962 153.389 255.415C153.193 255.868 152.84 256.235 152.395 256.45C147.52 258.686 146.905 258.563 144.423 259.605C144.133 259.765 143.791 259.804 143.471 259.716C143.152 259.627 142.879 259.417 142.712 259.131C142.545 258.844 142.497 258.504 142.577 258.182C142.658 257.86 142.861 257.582 143.143 257.408C144.975 255.97 146.931 254.697 148.987 253.604Z" fill="#141414"/>
<path d="M139.965 305.524C143.652 306.931 147.259 308.539 150.771 310.34C151.064 310.507 151.279 310.783 151.368 311.108C151.458 311.434 151.414 311.781 151.247 312.074C151.08 312.367 150.804 312.582 150.479 312.672C150.154 312.761 149.806 312.718 149.513 312.551C146.223 310.765 141.237 309.865 137.514 308.233C137.221 308.099 136.971 307.887 136.79 307.62C136.61 307.354 136.506 307.042 136.491 306.721C136.049 299.49 135.633 297.743 135.51 290.375C135.506 289.961 135.626 289.554 135.856 289.208C136.085 288.863 136.412 288.594 136.796 288.436C156.718 280.14 157.61 261.847 154.038 240.49C153.978 240.174 154.041 239.847 154.215 239.576C154.39 239.306 154.661 239.113 154.974 239.037C155.287 238.962 155.617 239.01 155.895 239.171C156.174 239.332 156.379 239.594 156.47 239.903C158.577 246.021 159.685 252.439 159.751 258.909C159.804 273.737 153.473 285.713 139.683 291.717L139.965 305.524Z" fill="#141414"/>
<path d="M159.93 320.307C160.38 321.112 161.965 323.717 162.253 324.22C162.308 324.378 162.393 324.523 162.504 324.648C162.616 324.773 162.75 324.874 162.901 324.947C163.052 325.02 163.215 325.062 163.382 325.072C163.549 325.081 163.716 325.058 163.874 325.003C164.031 324.948 164.177 324.862 164.302 324.751C164.426 324.639 164.528 324.505 164.601 324.354C164.673 324.204 164.716 324.04 164.725 323.873C164.735 323.706 164.711 323.539 164.656 323.382C162.839 310.804 153.197 306.019 151.883 308.224C150.91 309.848 155.483 312.305 159.93 320.307Z" fill="#141414"/>
<path d="M110.847 246.592C118.128 240.465 124.039 225.607 118.365 217.524C118.117 217.168 117.986 216.744 117.99 216.311C117.995 215.877 118.134 215.456 118.39 215.106C118.646 214.756 119.004 214.494 119.416 214.358C119.827 214.222 120.271 214.217 120.685 214.346C130.015 217.308 138.467 226.571 134.459 235.493C134.331 235.798 134.086 236.041 133.779 236.166C133.473 236.292 133.128 236.29 132.823 236.162C132.517 236.034 132.275 235.789 132.149 235.482C132.023 235.176 132.025 234.831 132.153 234.526C134.235 228.762 129.462 223.589 124.201 220.456C126.887 230.78 120.546 244.593 112.742 250.519C111.546 251.427 110.813 250.569 108.044 250.72C101.408 251.055 97.5232 258.392 104.72 261.061C106.021 261.532 107.393 261.775 108.776 261.78C109.285 261.779 109.774 261.978 110.136 262.335C110.499 262.692 110.707 263.177 110.716 263.686C110.741 271.928 111.895 281.373 117.86 286.954C118.097 287.184 118.236 287.498 118.246 287.828C118.256 288.159 118.137 288.48 117.914 288.725C117.691 288.969 117.382 289.117 117.052 289.137C116.722 289.157 116.397 289.048 116.146 288.832C109.645 283.091 107.462 274.209 106.923 265.586C105.325 265.508 103.759 265.115 102.314 264.429C100.868 263.744 99.5729 262.78 98.5014 261.592C93.5011 255.597 99.2812 245.253 110.847 246.592Z" fill="#141414"/>
<path d="M144.007 232.133C143.886 232.448 143.895 232.798 144.033 233.106C144.17 233.415 144.424 233.656 144.739 233.777C145.054 233.897 145.404 233.888 145.712 233.751C146.021 233.613 146.262 233.359 146.383 233.044C147.874 229.983 148.363 226.531 147.782 223.176C147.2 219.821 145.577 216.735 143.143 214.354C142.151 213.421 139.401 211.442 138.439 212.529C136.343 214.896 146.433 220.442 144.007 232.133Z" fill="#141414"/>
<path d="M153.574 216.333C155.289 221.16 155.289 226.431 153.574 231.258C153.396 231.535 153.332 231.869 153.394 232.191C153.457 232.514 153.641 232.8 153.91 232.989C154.178 233.179 154.509 233.258 154.834 233.209C155.159 233.161 155.453 232.988 155.654 232.729C160.184 228.061 159.717 219.117 157.283 214.782C155.123 210.914 151.715 209.519 153.574 216.333Z" fill="#141414"/>
<path d="M141.128 270.204C140.14 273.108 138.604 275.795 136.603 278.119C133.433 281.546 128.405 283.22 124.755 280.255C119.964 276.342 120.775 267.937 123.497 261.88C124.853 258.879 146.014 268.929 141.128 270.204ZM126.407 265.914C125.419 268.779 125.303 271.873 126.074 274.804C126.572 276.37 127.751 277.75 129.389 277.546C132.939 277.105 135.75 273.105 138.012 269.969C133.871 269.58 129.888 268.188 126.407 265.914Z" fill="#141414"/>
<path d="M432.247 241.907C434.368 240.955 436.712 240.616 439.016 240.926C442.166 241.466 442.56 242.081 443.231 241.206C443.432 240.938 443.523 240.603 443.484 240.27C443.446 239.937 443.281 239.632 443.024 239.417C442.231 238.475 441.234 237.727 440.109 237.228C438.983 236.729 437.759 236.493 436.529 236.538C431.461 236.689 429.088 240.809 430.519 242.008C430.772 242.199 431.085 242.294 431.402 242.276C431.718 242.257 432.018 242.127 432.247 241.907Z" fill="#141414"/>
<path d="M431.14 429.032C433.26 427.057 435.782 425.563 438.533 424.653C439.869 424.314 439.452 421.844 437.496 422.338C434.488 423.074 431.769 424.694 429.689 426.989C428.373 428.599 430.167 429.823 431.14 429.032Z" fill="#141414"/>
<path d="M542.985 408.629C542.426 406.485 541.752 404.411 541.148 402.365C542.244 401.761 543.296 401.082 544.298 400.333C544.613 400.085 544.841 399.745 544.953 399.361C545.064 398.977 545.052 398.567 544.919 398.19C530.849 356.566 504.252 326.241 462.642 313.814C462.343 313.726 462.028 313.701 461.719 313.741C461.409 313.782 461.112 313.887 460.845 314.049C442.317 325.715 417.651 338.187 406.063 319.603C405.814 319.191 405.431 318.877 404.978 318.714C404.525 318.55 404.03 318.547 403.576 318.705C378.281 327.649 361.145 339.064 342.231 358.048C341.993 358.279 341.857 358.595 341.852 358.926C341.847 359.258 341.974 359.578 342.204 359.816C342.435 360.054 342.751 360.19 343.083 360.195C343.414 360.2 343.734 360.073 343.972 359.842C360.88 343.464 381.147 330.957 403.369 323.189C416.525 342.639 442.457 330.615 462.296 318.18C501.549 330.145 526.95 358.965 540.835 398.095C527.716 407.067 486.112 407.556 479.496 406.527C478.342 401.016 476.77 395.602 474.792 390.33C471.285 380.548 471.667 382.322 469.82 379.117C469.694 378.816 469.456 378.576 469.156 378.447C468.857 378.318 468.519 378.311 468.214 378.427C467.909 378.542 467.661 378.772 467.522 379.067C467.383 379.362 467.364 379.699 467.469 380.008C468.224 384.05 467.346 381.828 471.061 392.636C472.484 397.234 474.195 401.738 476.184 406.122C460.722 404.649 433.795 407.908 424.432 421.416C424.227 421.682 424.135 422.018 424.178 422.351C424.221 422.684 424.394 422.987 424.66 423.192C424.925 423.398 425.262 423.489 425.595 423.446C425.928 423.404 426.231 423.23 426.436 422.964C431.187 417.243 441.616 413.853 448.888 412.262C459.294 410.147 469.95 409.542 480.528 410.465C482.841 410.577 485.147 410.815 487.434 411.178C487.592 411.225 487.757 411.239 487.92 411.219C488.083 411.2 488.241 411.148 488.383 411.066C488.525 410.984 488.649 410.873 488.747 410.742C488.846 410.61 488.916 410.46 488.955 410.3C489.284 409.244 487.166 409.87 497.451 409.63C508.455 409.372 528.476 408.305 538.476 403.721C539.491 412.838 540.777 417.305 540.005 423.046C538.686 432.132 532.83 438.955 521.698 441.836C517.65 442.929 513.451 443.358 509.266 443.108C508.929 443.078 508.594 443.182 508.333 443.396C508.072 443.61 507.905 443.918 507.868 444.254C507.845 444.593 507.955 444.929 508.174 445.189C508.393 445.45 508.704 445.615 509.042 445.651C533.954 448.69 549.497 432.8 542.985 408.629Z" fill="#141414"/>
<path d="M508.287 444.19C506.816 444.235 505.352 444.422 503.916 444.749V444.095C504.236 443.706 504.461 443.249 504.574 442.759C504.688 442.268 504.686 441.759 504.57 441.269C503.257 435.179 487.336 435.098 480.813 435.453C475.262 435.833 452.628 437.616 452.142 443.175C451.785 447.451 452.067 451.756 452.98 455.948C455.381 466.947 461.477 474.504 472.875 477.09C478.711 478.552 484.884 477.742 490.145 474.823C493.975 472.644 497.302 469.681 499.908 466.128C502.846 466.214 505.785 466.034 508.69 465.591C524.445 462.592 521.701 444.126 508.287 444.19ZM481.087 439.539C486.221 439.092 497.244 438.435 500.931 442.004C497.348 446.051 483.149 447.035 477.777 447.295C472.218 447.6 459.954 448.243 456.982 444.221C461.944 441.026 475.088 440.009 481.087 439.539ZM512.922 459.35C509.53 461.479 505.67 462.748 501.677 463.045C503.579 458.246 504.344 453.073 503.913 447.93C505.622 447.958 507.327 448.091 509.02 448.326C515.94 449.372 516.734 456.119 512.922 459.35Z" fill="#141414"/>
<path d="M486.132 119.042C485.768 109.998 484.914 100.98 483.574 92.0282C482.124 82.6258 474.11 77.1364 463.056 74.2827C443.337 69.1735 161.959 72.8852 143.884 75.6243C127.22 78.1762 124.224 90.6475 123.525 107.171C122.924 129.875 123.752 152.594 126.004 175.193C126.016 175.357 126.06 175.516 126.134 175.662C126.208 175.809 126.31 175.939 126.434 176.046C126.558 176.153 126.702 176.234 126.857 176.286C127.013 176.337 127.177 176.357 127.34 176.345C127.504 176.333 127.663 176.289 127.809 176.215C127.955 176.141 128.086 176.039 128.193 175.915C128.3 175.791 128.381 175.647 128.432 175.492C128.484 175.336 128.504 175.172 128.492 175.009C127.195 155.164 126.18 134.627 126.843 114.659C128.24 114.612 422.21 109.475 481.643 111.75C482.917 128.799 486.66 271.981 487.029 306.936C487.029 307.275 487.163 307.599 487.403 307.839C487.642 308.079 487.967 308.213 488.306 308.213C488.645 308.213 488.97 308.079 489.209 307.839C489.449 307.599 489.583 307.275 489.583 306.936C489.583 244.241 486.159 119.592 486.132 119.042ZM126.938 112.102C127.611 95.6114 128.335 81.9802 144.476 79.6296C161.822 77.0638 443.583 73.5672 462.022 78.3271C471.209 80.6917 478.255 84.8339 479.499 92.671C480.36 98.1157 480.978 103.619 481.439 109.162C404.051 104.787 175.696 108.787 126.938 112.102Z" fill="#141414"/>
<path d="M261.441 333.309C262.59 335.303 263.175 337.572 263.132 339.872C263.054 340.194 263.103 340.533 263.27 340.819C263.437 341.105 263.709 341.314 264.028 341.403C264.347 341.492 264.688 341.454 264.978 341.296C265.269 341.138 265.487 340.873 265.586 340.557C266.24 339.1 266.544 337.51 266.473 335.915C266.402 334.319 265.959 332.763 265.178 331.37C261.461 323.843 254.675 321.587 253.766 323.08C252.668 324.888 258.943 328.731 261.441 333.309Z" fill="#141414"/>
<path d="M150.687 432.884C154.833 434.984 158.754 437.5 162.39 440.394C162.517 440.502 162.664 440.584 162.822 440.635C162.981 440.686 163.148 440.705 163.314 440.692C163.48 440.678 163.642 440.632 163.79 440.556C163.939 440.48 164.07 440.376 164.178 440.249C164.286 440.122 164.368 439.975 164.419 439.816C164.47 439.657 164.49 439.49 164.476 439.324C164.463 439.158 164.417 438.996 164.341 438.848C164.264 438.7 164.16 438.568 164.033 438.46C160.762 434.626 156.412 431.865 151.55 430.536C149.728 430.226 149.314 432.244 150.687 432.884Z" fill="#141414"/>
<path d="M156.573 423.621C159.332 426.643 164.939 431.282 166.887 433.124C167.109 433.372 167.419 433.523 167.751 433.545C168.083 433.567 168.41 433.457 168.663 433.24C168.915 433.023 169.072 432.716 169.101 432.385C169.129 432.053 169.027 431.724 168.815 431.467C166.044 427.41 162.373 424.047 158.088 421.643C156.492 420.863 155.464 422.406 156.573 423.621Z" fill="#141414"/>
<path d="M230.051 311.55L235.361 311.626C235.698 311.635 236.018 311.778 236.25 312.023C236.482 312.267 236.608 312.594 236.6 312.931C236.591 313.271 236.449 313.594 236.204 313.83C235.959 314.067 235.632 314.198 235.292 314.194H228.508C228.316 314.2 228.125 314.164 227.949 314.089C227.772 314.013 227.614 313.901 227.485 313.758C227.357 313.616 227.261 313.447 227.204 313.264C227.147 313.08 227.13 312.887 227.155 312.696C230.839 283.069 233.329 253.244 241.069 223.966C241.171 223.583 241.382 223.238 241.676 222.972C241.97 222.706 242.335 222.531 242.726 222.468C252.26 220.895 301.198 220.28 316.514 221.971C316.831 222.005 317.136 222.11 317.406 222.279C317.677 222.447 317.906 222.674 318.077 222.943C319.597 225.35 315.223 227.893 309.924 260.083C306.936 278.251 305.15 296.754 302.511 314.586C302.472 314.851 302.379 315.106 302.239 315.335C302.099 315.565 301.914 315.763 301.695 315.919C300.074 317.079 300.834 315.245 281.669 314.726C272.268 314.434 262.858 314.616 253.476 315.271C253.15 315.291 252.829 315.184 252.582 314.972C252.334 314.76 252.179 314.459 252.149 314.134C252.12 313.809 252.218 313.486 252.424 313.232C252.629 312.979 252.925 312.816 253.249 312.777C266.034 311.5 286.102 310.39 298.83 312.009C302.93 283.5 304.566 253.767 313.42 225.967C290.523 224.804 267.579 224.938 244.697 226.367C237.715 252.45 233.995 284.067 230.051 311.55Z" fill="#141414"/>
<path d="M257.467 138.794C257.463 138.46 257.328 138.142 257.09 137.908C256.852 137.674 256.532 137.543 256.198 137.545C226.705 137.187 203.876 136.67 178.369 136.706C177.81 136.706 177.275 136.927 176.879 137.321C176.484 137.715 176.261 138.25 176.258 138.808V209.309C176.259 209.583 176.314 209.854 176.421 210.107C176.529 210.359 176.685 210.587 176.882 210.778C177.078 210.969 177.311 211.119 177.566 211.218C177.822 211.318 178.095 211.365 178.369 211.358H256.198C256.729 211.341 257.233 211.118 257.602 210.735C257.971 210.352 258.177 209.841 258.174 209.309C258.057 177.312 257.584 155.978 257.467 138.794ZM254.912 140.074C227.681 140.703 208.65 140.913 180.487 140.896V207.188H254.242C254.393 185.968 254.624 161.769 254.904 140.074H254.912Z" fill="#141414"/>
<path d="M454.467 468.635C452.158 469.071 450.018 470.147 448.29 471.74C443.947 475.773 445.57 482.023 452.519 484.768C463.112 488.96 506.647 488.547 513.539 478.272C514.262 477.303 514.592 476.095 514.463 474.893C514.333 473.69 513.754 472.581 512.841 471.788C511.201 470.31 509.157 469.357 506.971 469.051C506.643 468.968 506.295 469.018 506.003 469.192C505.712 469.365 505.502 469.647 505.418 469.975C505.335 470.304 505.385 470.652 505.559 470.943C505.732 471.234 506.014 471.444 506.342 471.528C507.934 471.83 509.402 472.596 510.56 473.73C511.734 475.248 511.242 476.12 509.9 477.146C504.59 481.201 488.054 482.663 480.905 482.875C475.181 483.043 459.204 482.811 454.009 480.894C451.037 479.795 448.55 477.462 450.191 474.764C451.331 472.993 453.06 471.682 455.073 471.064C455.375 470.965 455.628 470.756 455.781 470.478C455.935 470.2 455.977 469.875 455.9 469.567C455.824 469.259 455.633 468.992 455.367 468.819C455.101 468.646 454.779 468.58 454.467 468.635Z" fill="#141414"/>
<path d="M360.304 407.363C358.019 408.182 355.545 408.324 353.182 407.771C349.157 406.605 349.392 400.867 351.905 397.801C352.133 397.516 352.285 397.177 352.343 396.816C352.402 396.455 352.366 396.086 352.24 395.743C352.113 395.4 351.9 395.096 351.621 394.86C351.341 394.624 351.006 394.464 350.647 394.397C336.048 391.672 331.641 413.274 341.664 422.037C343.995 423.82 346.887 424.711 349.817 424.548C352.747 424.386 355.523 423.181 357.643 421.151C363.764 415.474 363.191 406.195 360.304 407.363Z" fill="#141414"/>
<path d="M362.713 381.157C361.191 380.394 359.512 379.993 357.81 379.986C356.107 379.98 354.426 380.367 352.897 381.118C351.369 381.869 350.035 382.964 349.001 384.316C347.966 385.668 347.258 387.242 346.932 388.913C346.871 389.19 346.867 389.477 346.919 389.756C346.971 390.035 347.078 390.301 347.234 390.538C347.391 390.776 347.593 390.979 347.829 391.137C348.065 391.294 348.33 391.403 348.609 391.457C355.544 392.773 362.732 389.972 363.78 382.954C363.86 382.575 363.795 382.18 363.597 381.847C363.4 381.514 363.084 381.268 362.713 381.157Z" fill="#141414"/>
<path d="M297.623 250.77C297.786 250.805 297.954 250.806 298.118 250.775C298.282 250.743 298.437 250.679 298.576 250.586C298.715 250.493 298.833 250.374 298.925 250.235C299.017 250.095 299.079 249.939 299.11 249.775L300.803 242.55C300.84 242.322 300.83 242.09 300.773 241.866C300.717 241.642 300.616 241.433 300.475 241.249C300.335 241.066 300.159 240.914 299.958 240.801C299.757 240.688 299.535 240.618 299.305 240.594C284.478 238.929 269.56 238.205 254.641 238.425C254.174 238.434 253.723 238.597 253.358 238.888C252.992 239.179 252.732 239.582 252.618 240.035C251.245 245.563 250.412 251.092 249.426 256.609C249.37 256.908 249.382 257.216 249.459 257.511C249.536 257.805 249.676 258.079 249.871 258.313C250.066 258.547 250.31 258.735 250.585 258.864C250.861 258.993 251.162 259.06 251.466 259.06C263.116 258.89 270.293 258.99 284.467 258.048C284.461 260.329 285.359 262.519 286.964 264.139C288.569 265.759 290.75 266.678 293.031 266.693C301.908 266.707 304.856 254.739 297.623 250.77ZM284.922 255.435C277.038 255.435 268.58 255.156 253.951 254.957C254.602 251.374 255.449 246.572 256.357 242.659C272.113 242.455 280.724 243.095 297.273 243.861C296.594 249.834 296.407 249.918 297.064 250.491C295.948 249.975 294.738 249.694 293.509 249.666C292.28 249.638 291.058 249.862 289.919 250.326C288.781 250.79 287.75 251.482 286.89 252.361C286.03 253.24 285.361 254.286 284.922 255.435ZM296.175 261.106C295.769 261.533 295.28 261.873 294.739 262.106C294.197 262.339 293.614 262.46 293.025 262.462C292.436 262.464 291.852 262.346 291.309 262.117C290.766 261.887 290.276 261.55 289.867 261.126C289.205 260.427 288.75 259.558 288.554 258.616C288.358 257.674 288.429 256.697 288.757 255.792C289.086 254.888 289.659 254.093 290.414 253.496C291.169 252.899 292.075 252.525 293.031 252.414C293.95 252.582 294.81 252.989 295.523 253.593C296.237 254.198 296.779 254.978 297.098 255.857C297.416 256.737 297.498 257.684 297.336 258.605C297.174 259.526 296.774 260.388 296.175 261.106Z" fill="#141414"/>
<path d="M289.73 281.63C290.279 279.948 290.733 278.236 291.091 276.504C291.149 276.17 291.337 275.873 291.613 275.678C291.89 275.483 292.233 275.406 292.567 275.464C292.9 275.522 293.197 275.71 293.392 275.986C293.587 276.263 293.664 276.606 293.606 276.94C293.295 279.189 292.86 281.419 292.301 283.62C291.692 285.875 291.756 283.62 246.983 286.451C246.644 286.472 246.304 286.412 245.993 286.276C245.682 286.14 245.407 285.932 245.192 285.668C244.978 285.405 244.829 285.094 244.758 284.762C244.687 284.429 244.697 284.085 244.786 283.757C246.097 278.952 247.022 273.535 248.255 269.049C248.366 268.635 248.602 268.266 248.93 267.99C249.259 267.715 249.664 267.547 250.091 267.509C258.336 266.833 266.627 266.94 274.852 267.828C275.183 267.83 275.5 267.963 275.733 268.199C275.966 268.434 276.096 268.753 276.094 269.084C276.092 269.416 275.959 269.733 275.723 269.966C275.488 270.199 275.169 270.329 274.838 270.327C254.007 271.431 254.803 271.341 251.944 271.57C251.044 275.148 250.208 279.659 249.621 282.015C262.974 281.168 276.363 281.039 289.73 281.63Z" fill="#141414"/>
<path d="M247.791 293.534L247.45 295.149C247.423 295.314 247.363 295.472 247.275 295.615C247.187 295.757 247.071 295.88 246.935 295.978C246.799 296.076 246.645 296.145 246.482 296.183C246.319 296.222 246.15 296.227 245.985 296.2C245.82 296.173 245.662 296.113 245.52 296.025C245.377 295.937 245.254 295.821 245.156 295.685C245.059 295.549 244.989 295.396 244.951 295.233C244.913 295.07 244.907 294.901 244.934 294.735L245.314 291.792C245.375 291.453 245.559 291.148 245.831 290.936C246.103 290.724 246.443 290.62 246.787 290.644C257.794 291.292 273.862 289.875 288.712 290.21C289.031 290.22 289.344 290.301 289.627 290.448C289.911 290.595 290.157 290.804 290.348 291.059C290.54 291.315 290.671 291.61 290.732 291.923C290.793 292.237 290.783 292.56 290.702 292.868C289.618 296.994 288.43 300.516 287.013 304.8C286.867 305.247 286.577 305.633 286.188 305.897C285.799 306.16 285.333 306.287 284.864 306.256C270.33 305.331 273.558 306.301 249.979 304.538C249.657 304.518 249.355 304.375 249.136 304.138C248.917 303.901 248.798 303.589 248.803 303.267C248.809 302.944 248.939 302.636 249.165 302.407C249.392 302.178 249.699 302.045 250.021 302.036C261.159 301.281 272.335 301.246 283.477 301.933C284.254 299.568 285.154 296.879 285.867 294.386C273.958 294.182 261.905 294.967 247.791 293.534Z" fill="#141414"/>
<path d="M241.516 446.459C240.742 444.849 240.292 445.518 218.695 445.341C220.844 443.122 223.016 440.911 225.249 438.756C225.503 438.516 225.684 438.209 225.772 437.87C225.86 437.532 225.852 437.176 225.749 436.842C225.645 436.508 225.45 436.209 225.186 435.98C224.922 435.751 224.599 435.6 224.254 435.545C210.523 433.988 196.687 433.576 182.888 434.315C182.721 434.315 182.555 434.348 182.401 434.412C182.247 434.476 182.106 434.57 181.989 434.689C181.871 434.808 181.779 434.949 181.716 435.104C181.654 435.259 181.622 435.425 181.625 435.592C181.628 435.929 181.764 436.251 182.004 436.488C182.243 436.725 182.565 436.858 182.902 436.859C195.256 436.688 207.609 437.292 219.888 438.667C219.609 438.946 189.999 468.59 189.755 468.87C180.252 467.408 170.85 467.268 161.501 466.293C137.036 463.794 152.783 463.28 90.1946 459.945C94.7337 457.614 98.8005 455.501 103.052 452.927C103.194 452.846 103.319 452.738 103.42 452.609C103.521 452.48 103.595 452.332 103.638 452.175C103.682 452.017 103.694 451.852 103.674 451.69C103.654 451.527 103.602 451.37 103.521 451.228C103.356 450.941 103.085 450.731 102.766 450.642C102.447 450.554 102.106 450.594 101.816 450.755C95.7874 454.109 89.2583 456.7 82.7907 459.73C82.4398 459.906 82.1561 460.193 81.9827 460.545C81.8093 460.897 81.7557 461.297 81.83 461.682C81.9044 462.068 82.1026 462.419 82.3945 462.681C82.6865 462.944 83.0562 463.104 83.4475 463.137C92.6263 464.071 97.7356 464.459 106.531 465.027C103.467 467.274 100.527 469.687 97.7244 472.254C97.4104 472.561 97.1996 472.957 97.1212 473.389C97.0428 473.821 97.1008 474.266 97.2869 474.663C97.4731 475.061 97.7783 475.39 98.1602 475.606C98.5421 475.822 98.9818 475.914 99.4182 475.868C99.6977 475.838 193.576 487.725 207.227 486.797C207.772 486.763 208.281 486.515 208.644 486.107C219.729 473.683 230.724 462.807 241.345 448.215C241.528 447.964 241.641 447.669 241.671 447.36C241.701 447.052 241.647 446.74 241.516 446.459Z" fill="#141414"/>
<path d="M180.557 312.414C193.325 312.305 209.094 312.02 223.334 312.35C223.672 312.355 223.993 312.494 224.228 312.737C224.462 312.979 224.591 313.305 224.585 313.642C224.58 313.98 224.44 314.301 224.198 314.535C223.955 314.77 223.63 314.899 223.293 314.893C211.914 314.865 196.936 316.028 178.665 316.481C178.14 316.492 177.632 316.298 177.248 315.941C176.864 315.585 176.633 315.092 176.605 314.569C175.316 292.488 175.766 272.596 175.467 252.103C175.459 251.596 175.634 251.102 175.96 250.712C176.286 250.323 176.741 250.064 177.242 249.982C195.526 247.154 214.129 247.069 232.438 249.728C232.766 249.776 233.061 249.952 233.259 250.218C233.457 250.484 233.541 250.818 233.493 251.146C233.445 251.474 233.268 251.77 233.002 251.967C232.736 252.165 232.402 252.249 232.074 252.201C221.378 250.781 195.435 251.491 179.73 253.878C179.962 272.73 179.699 293.548 180.557 312.414Z" fill="#141414"/>
<path d="M320.257 259.055C342.709 262.143 375.137 258.697 397.566 255.62C397.744 255.624 397.921 255.59 398.085 255.522C398.249 255.453 398.397 255.351 398.519 255.221C398.64 255.092 398.734 254.938 398.793 254.77C398.851 254.602 398.874 254.424 398.86 254.247C398.845 254.07 398.793 253.898 398.708 253.742C398.623 253.586 398.505 253.449 398.364 253.342C398.223 253.234 398.06 253.157 397.887 253.116C397.714 253.075 397.534 253.071 397.36 253.104C341.051 256.888 390.14 254.448 326.565 256.385C324.499 256.447 322.454 256.536 320.416 256.57C320.252 256.56 320.088 256.583 319.933 256.637C319.778 256.691 319.635 256.775 319.512 256.884C319.39 256.993 319.29 257.125 319.218 257.273C319.147 257.421 319.105 257.581 319.095 257.745C319.086 257.909 319.109 258.073 319.163 258.228C319.216 258.383 319.3 258.526 319.409 258.649C319.519 258.772 319.651 258.871 319.799 258.943C319.946 259.015 320.107 259.056 320.271 259.066L320.257 259.055Z" fill="#141414"/>
<path d="M310.281 317.878C314.832 317.484 317.196 317.481 325.439 316.883C361.201 314.284 371.797 315.248 400.814 312.274C401.152 312.246 401.464 312.085 401.684 311.828C401.903 311.57 402.013 311.237 401.988 310.899C401.951 310.565 401.787 310.258 401.53 310.042C401.273 309.826 400.943 309.718 400.607 309.739C388.175 310.519 343.668 310.502 323.429 313.015C318.633 313.61 314.547 314.412 309.915 315.404C309.587 315.453 309.292 315.63 309.094 315.896C308.897 316.162 308.813 316.496 308.862 316.824C308.91 317.152 309.087 317.448 309.353 317.645C309.619 317.843 309.953 317.927 310.281 317.878Z" fill="#141414"/>
<path d="M439.016 434.695C441.327 433.339 443.754 432.192 446.269 431.269C447.667 430.737 447.432 428.63 445.509 428.851C442.539 429.097 439.763 430.421 437.703 432.574C436.392 434.1 437.937 435.36 439.016 434.695Z" fill="#141414"/>
<path d="M449.103 435.794C441.523 435.442 434.027 434.955 426.374 435.131C418.076 414.289 410.443 389.682 400.814 368.764C400.655 368.415 400.404 368.117 400.087 367.901C399.77 367.685 399.4 367.56 399.017 367.54C360.854 366.263 322.113 368.744 284.252 366.654C287.69 349.9 287.889 332.642 284.838 315.813C284.777 315.494 284.595 315.212 284.331 315.025C284.066 314.839 283.739 314.762 283.419 314.811C283.098 314.86 282.809 315.032 282.613 315.289C282.416 315.547 282.328 315.871 282.365 316.193C282.819 320.409 283.038 324.647 283.022 328.888C283.483 359.208 277.672 381.786 269.178 398.634C264.825 407.745 258.666 415.876 251.075 422.534C237.69 422.199 220.713 421.788 207.341 422.006C204.213 412.019 200.133 402.355 195.158 393.148C199.119 384.763 203.725 375.539 210.863 368.658C215.615 375.609 215.693 376.025 221.009 383.144C219.667 385.129 215.346 391.348 217.331 392.692C221.873 395.767 240.784 356.432 249.303 342.575C250.032 341.387 249.582 341.91 247.067 330.671C245.133 322.651 243.719 314.515 242.832 306.313C242.8 305.981 242.639 305.675 242.383 305.461C242.128 305.247 241.798 305.142 241.466 305.168C241.134 305.195 240.825 305.35 240.607 305.602C240.388 305.854 240.277 306.181 240.297 306.514C240.821 318.191 242.506 329.787 245.328 341.13C237.687 353.64 231.446 367.501 223.527 379.701C220.12 375.388 219.399 374.427 212.906 366.877C214.212 365.829 215.88 365.103 215.159 363.817C207.54 350.063 198.11 334.791 186.304 324.539C185.127 323.538 184.783 324.377 178.601 326.361C178.275 325.379 177.83 324.44 177.276 323.566C175.081 320.653 172.221 318.306 168.935 316.721C164.276 315.08 163.502 317.744 167.474 320.581C175.135 326.042 175.3 326.11 176.163 327.093C155.117 333.2 134.132 330.925 112.918 325.137C105.796 323.214 97.1682 317.59 88.8642 314.407C92.4418 313.16 100.212 310.67 104.539 309.692C112.42 323.351 112.066 324.488 113.664 323.963C116.652 322.965 111.001 312.305 108.974 308.817C111.285 308.428 113.62 308.193 115.962 308.115C116.519 308.099 117.047 307.863 117.43 307.459C117.814 307.054 118.021 306.515 118.008 305.958C118.009 301.915 117.562 297.884 116.677 293.939C116.862 293.802 117.041 293.66 117.22 293.517C117.483 293.315 117.656 293.017 117.7 292.688C117.744 292.359 117.656 292.026 117.454 291.762C117.253 291.498 116.954 291.325 116.625 291.281C116.296 291.237 115.963 291.325 115.699 291.527C107.264 297.654 93.0847 298 89.0487 287.335C86.4298 280.627 88.7692 272.965 89.6077 265.838C89.6709 265.29 89.5163 264.739 89.1773 264.304C81.055 253.954 77.701 235.714 83.9758 224.374C87.1397 218.726 91.765 214.033 97.3666 210.788C102.968 207.542 109.34 205.863 115.814 205.927C116.102 205.924 116.387 205.862 116.65 205.743C116.913 205.625 117.149 205.454 117.342 205.24C124.632 197.134 133.464 192.383 144.2 194.255C160.346 197 170.579 214.992 162.722 229.771C162.559 230.068 162.52 230.417 162.615 230.742C162.709 231.067 162.929 231.341 163.225 231.504C163.522 231.667 163.871 231.706 164.196 231.612C164.521 231.517 164.795 231.298 164.958 231.001C174.321 214.623 163.357 194.021 144.904 190.44C132.992 188.204 123.075 193.037 114.872 201.766C107.923 201.84 101.112 203.716 95.1058 207.211C89.0994 210.706 84.1029 215.7 80.605 221.705C75.8093 219.905 70.6018 219.5 65.5853 220.536C60.5687 221.572 55.9481 224.008 52.2581 227.561C27.9025 250.379 53.0603 290.744 33.1207 308.132C30.9752 310.134 28.1934 311.317 25.263 311.473C22.3326 311.63 19.4407 310.75 17.0942 308.987C16.7465 308.762 16.3377 308.65 15.9237 308.666C15.5097 308.681 15.1106 308.825 14.781 309.076C14.4515 309.327 14.2074 309.673 14.0821 310.068C13.9569 310.463 13.9565 310.887 14.0812 311.282C16.587 318.761 21.7584 325.057 28.6089 328.967C35.4595 332.877 43.5097 334.128 51.224 332.482C37.8436 347.943 27.5325 365.813 20.8423 385.134C20.6959 385.573 20.7009 386.049 20.8564 386.485C21.0119 386.921 21.3089 387.292 21.7002 387.54C22.0914 387.787 22.5542 387.896 23.0147 387.85C23.4753 387.804 23.907 387.604 24.241 387.284C25.938 385.601 27.9457 384.265 30.1525 383.348C25.8308 397.162 25.7588 411.955 29.9456 425.81C40.2424 454.967 75.5992 453.645 106.923 448.083C123.972 444.956 137.304 439.698 152.856 447.399C153.153 447.537 153.493 447.556 153.804 447.45C154.114 447.345 154.373 447.123 154.524 446.832C154.676 446.541 154.709 446.203 154.618 445.888C154.526 445.572 154.317 445.305 154.032 445.14C134.49 434.502 118.972 443.765 93.0791 445.61C74.2715 446.94 60.4698 447.633 49.2255 441.962C38.6912 436.652 33.7189 427.579 31.7484 415.969C29.9676 404.808 30.4429 393.403 33.1459 382.429C39.9238 381.031 48.0237 383.759 54.4326 386.412C62.1552 389.604 80.5575 399.269 83.3776 399.148C88.0257 399.252 93.8701 399.652 98.4706 399.987C110.166 400.646 121.762 402.51 133.076 405.549C149.266 409.87 164.577 416.984 178.321 426.57C178.59 426.774 178.929 426.862 179.263 426.816C179.597 426.769 179.899 426.592 180.103 426.323C180.306 426.054 180.395 425.715 180.348 425.381C180.302 425.047 180.125 424.745 179.855 424.541C166.358 413.833 150.822 405.985 134.194 401.474C122.601 398.286 110.678 396.45 98.6635 396.001C94.9629 395.912 95.2676 396.133 95.371 395.85C95.7707 394.732 96.1564 393.592 96.503 392.438C97.3415 389.564 99.5076 379.72 99.7563 377.904C99.8919 376.561 99.9339 375.211 99.8821 373.862C99.9239 373.7 99.9329 373.532 99.9085 373.367C99.8841 373.202 99.8269 373.043 99.7402 372.901C99.6535 372.758 99.5391 372.634 99.4038 372.536C99.2684 372.439 99.1148 372.369 98.9521 372.332C98.7894 372.294 98.6209 372.29 98.4565 372.319C98.292 372.348 98.1351 372.409 97.9948 372.5C97.8546 372.59 97.7339 372.708 97.6399 372.846C97.546 372.984 97.4806 373.139 97.4477 373.303C96.8021 374.494 96.2525 375.734 95.8042 377.012C94.1145 383.264 92.8934 389.632 92.1512 396.066C89.5937 396.161 87.2487 396.3 83.3776 396.664C65.5735 389.819 43.9514 371.749 27.0416 380.254C36.5076 356.567 51.5766 335.529 70.9567 318.943C81.1277 310.463 98.0877 325.531 111.792 329.223C137.198 336.018 160.567 337.645 184.789 327.937C195.689 337.373 205.061 351.695 212.325 364.085C202.668 370.234 198.07 377.501 192.933 387.977C187.684 376.889 187.701 375.908 182.441 368.054C182.275 367.773 182.006 367.567 181.691 367.481C181.376 367.395 181.039 367.436 180.754 367.595C180.468 367.753 180.256 368.017 180.162 368.33C180.069 368.643 180.101 368.98 180.252 369.27C185.331 380.771 198.822 411.528 204.359 422.07C197.17 422.235 192.587 422.629 184.733 423.381C184.402 423.396 184.091 423.542 183.868 423.786C183.644 424.03 183.527 424.353 183.542 424.684C183.557 425.014 183.702 425.325 183.947 425.549C184.191 425.772 184.514 425.889 184.845 425.874C189.051 425.908 196.863 426.089 200.217 426.117C270.671 426.752 260.455 427.347 276.993 426.587C283.924 426.274 292.167 425.765 299.688 426.095C300.018 426.107 300.34 425.99 300.585 425.77C300.831 425.55 300.981 425.243 301.005 424.914C301.029 424.585 300.925 424.259 300.713 424.006C300.502 423.752 300.201 423.59 299.873 423.554C286.443 422.193 278.376 423.216 255.304 422.649C269.483 410.91 277.731 393.069 282.298 375.391C318.376 457.301 309.001 435.609 310.603 439.352C310.766 439.736 311.042 440.062 311.395 440.286C311.748 440.51 312.161 440.621 312.579 440.604C334.788 439.676 428.887 442.228 445.666 443.181C446.004 443.198 446.337 443.085 446.594 442.863C446.851 442.642 447.013 442.331 447.046 441.993C447.06 441.827 447.04 441.66 446.988 441.502C446.936 441.343 446.853 441.197 446.744 441.072C446.634 440.946 446.501 440.844 446.351 440.771C446.201 440.697 446.039 440.655 445.872 440.646C422.696 438.952 337.616 435.66 313.828 436.437C313.468 435.598 286.834 375.067 284.967 370.955C284.967 370.955 360.027 370.542 397.583 371.679C406.577 391.524 413.931 414.292 423.837 437.362C423.972 437.666 424.196 437.922 424.479 438.096C424.762 438.27 425.092 438.354 425.424 438.337C433.287 437.882 441.188 438.161 449.05 438.287C449.216 438.295 449.382 438.27 449.538 438.213C449.694 438.157 449.837 438.07 449.959 437.957C450.081 437.845 450.18 437.71 450.249 437.559C450.319 437.408 450.358 437.245 450.364 437.079C450.363 436.743 450.231 436.42 449.996 436.18C449.76 435.94 449.44 435.801 449.103 435.794ZM78.4864 312.123C74.7516 311.997 71.1021 313.256 68.2399 315.659C63.3884 319.712 58.8131 324.085 54.5444 328.748C48.044 330.898 40.992 330.673 34.6414 328.115C28.2908 325.556 23.0529 320.829 19.8585 314.773C32.9111 319.111 43.7306 306.036 45.3097 292.343C47.1572 276.096 42.3331 259.136 47.188 243.551C51.5705 229.408 64.7965 220.031 79.3808 224.053C73.5113 236.823 77.0833 255.111 85.3369 266.21C84.7779 270.444 83.85 274.796 83.727 279.092C83.4922 287.1 86.0077 288.55 85.5046 290.982C81.4826 310.259 78.5395 310.592 78.478 312.123H78.4864ZM85.0351 313.155C79.8196 311.685 81.3205 313.473 83.8444 310.08C86.8359 305.277 88.504 299.768 88.6798 294.112C95.1083 300.876 106.048 300.219 113.975 295.725C113.691 298.479 113.612 301.25 113.737 304.015C111.307 304.18 108.89 304.492 106.498 304.949C105.81 304.004 103.496 301.019 102.255 301.74C101.52 302.179 101.369 302.668 102.512 305.837C96.367 307.437 90.4798 309.901 85.0267 313.155H85.0351Z" fill="#141414"/>
<path d="M184.73 423.373C192.584 422.632 197.168 422.227 204.356 422.062C198.811 411.499 185.909 382.06 180.25 369.261C180.098 368.972 180.066 368.635 180.159 368.322C180.253 368.009 180.465 367.745 180.751 367.586C181.036 367.428 181.373 367.387 181.688 367.473C182.003 367.558 182.272 367.764 182.438 368.046C187.698 375.9 187.681 376.881 192.93 387.968C198.056 377.501 202.665 370.223 212.322 364.077C205.055 351.692 195.692 337.365 184.786 327.929C160.564 337.636 137.195 336.009 111.789 329.215C103.359 326.942 93.6996 320.368 85.1441 317.618C76.4293 317.283 70.7498 323.767 64.6176 330.886C52.1854 345.289 42.7383 361.751 33.4338 378.25C49.178 375.992 67.748 390.649 83.3748 396.655C87.2459 396.292 89.5909 396.152 92.1483 396.057C92.8906 389.624 94.1117 383.255 95.8014 377.004C96.2497 375.725 96.7993 374.485 97.4449 373.295C97.4778 373.131 97.5432 372.976 97.6371 372.838C97.7311 372.7 97.8518 372.582 97.992 372.491C98.1323 372.401 98.2892 372.339 98.4537 372.31C98.6181 372.281 98.7866 372.286 98.9493 372.323C99.112 372.361 99.2656 372.43 99.401 372.528C99.5363 372.626 99.6507 372.749 99.7374 372.892C99.8241 373.035 99.8813 373.193 99.9057 373.358C99.9301 373.524 99.9211 373.692 99.8793 373.854C99.9311 375.202 99.8891 376.553 99.7535 377.895C98.6803 383.968 97.2155 389.966 95.3682 395.85C95.2648 396.13 94.9601 395.912 98.6607 396.001C110.678 396.449 122.604 398.286 134.199 401.474C150.827 405.985 166.363 413.833 179.861 424.541C180.92 425.365 178.955 425.22 183.632 424.147C183.721 423.926 183.872 423.736 184.067 423.599C184.262 423.461 184.492 423.383 184.73 423.373Z" fill="#0047FF"/>
<path d="M207.652 422C205.634 417.053 206.458 419.035 207.341 422H207.652Z" fill="#38A1FF"/>
<path d="M293.031 252.414C292.075 252.524 291.169 252.899 290.414 253.496C289.659 254.093 289.086 254.888 288.757 255.792C288.429 256.696 288.358 257.674 288.554 258.616C288.75 259.558 289.205 260.427 289.867 261.126C290.276 261.55 290.766 261.887 291.309 262.117C291.852 262.346 292.436 262.464 293.025 262.462C293.614 262.46 294.197 262.339 294.739 262.106C295.28 261.873 295.769 261.533 296.175 261.106C296.774 260.388 297.174 259.526 297.336 258.605C297.498 257.684 297.416 256.737 297.098 255.857C296.779 254.978 296.237 254.198 295.523 253.593C294.81 252.989 293.95 252.582 293.031 252.414Z" fill="#FF6F00"/>
<path d="M180.487 140.896V207.188H254.242C254.393 185.968 254.624 161.769 254.912 140.074C227.681 140.703 208.65 140.913 180.487 140.896Z" fill="white"/>
<path d="M150.46 87.8047C149.197 87.981 148.007 88.4996 147.017 89.3043C146.028 90.109 145.278 91.1691 144.848 92.3698C144.418 93.5704 144.325 94.8658 144.578 96.1156C144.832 97.3654 145.423 98.5219 146.287 99.4598C146.811 100.045 147.453 100.513 148.171 100.833C148.889 101.153 149.666 101.317 150.451 101.315C151.237 101.313 152.013 101.144 152.729 100.821C153.445 100.497 154.085 100.026 154.605 99.4375C155.405 98.4804 155.941 97.3311 156.161 96.1033C156.38 94.8754 156.276 93.6116 155.857 92.4366C155.438 91.2617 154.72 90.2163 153.774 89.404C152.827 88.5916 151.685 88.0403 150.46 87.8047Z" fill="#0047FF"/>
<path d="M509.341 346.429C509.419 346.433 509.498 346.433 509.576 346.429C508.028 344.868 506.433 343.353 504.794 341.884C487.113 340.867 474.843 339.12 455.881 340.811C440.274 342.209 423.853 346.577 408.559 346.605C396.158 346.63 382.663 342.477 366.573 341.622C364.953 342.715 363.353 343.841 361.771 344.998C362.131 345.413 362.638 345.673 363.185 345.722C375.844 347.743 391.205 353.716 408.559 353.777C425.284 353.836 440.517 349.532 456.572 347.857C470.616 346.379 491.23 346.275 509.341 346.429Z" fill="#FF6F00"/>
<path d="M525.236 365.952C524.286 364.486 523.31 363.042 522.307 361.623C503.469 361.505 481.517 359.946 455.113 364.728C440.039 367.453 422.017 374.231 408.414 371.651C407.872 371.501 407.294 371.57 406.802 371.842C406.311 372.114 405.946 372.569 405.787 373.107C405.647 373.647 405.72 374.219 405.99 374.707C406.261 375.194 406.708 375.559 407.24 375.726C413.787 378.061 420.797 378.805 427.688 377.895C450.814 375.201 440.889 369.851 525.236 365.952Z" fill="#FF6F00"/>
<path d="M476.511 395.453C495.749 391.976 515.082 393.377 535.933 385.788C535.337 384.447 534.724 383.121 534.094 381.811C515.728 386.856 497.831 384.436 474.166 388.572C474.644 389.903 474.694 389.972 476.511 395.453Z" fill="#FF6F00"/>
<path d="M472.319 396.278C472.07 395.56 470.488 390.951 469.948 389.369C462.444 390.886 432.993 398.821 416.497 395.283C415.958 395.118 415.376 395.174 414.878 395.438C414.38 395.703 414.008 396.154 413.843 396.693C413.678 397.232 413.734 397.814 413.998 398.312C414.263 398.81 414.714 399.182 415.253 399.347C433.563 406.337 452.706 400.353 472.319 396.278Z" fill="#FF6F00"/>
</svg>
