<svg width="98" height="30" viewBox="0 0 98 30" fill="none" xmlns="http://www.w3.org/2000/svg">
<g clip-path="url(#clip0_7270_1849)">
<path d="M26.6188 9.14902C26.2622 7.85455 25.7527 6.95838 25.3451 6.36094C24.4791 4.91711 23.4601 3.97115 22.7469 3.37371C20.5563 1.53158 17.6524 0.386475 14.4937 0.386475C7.5142 0.386475 1.85925 5.91285 1.85925 12.7337C1.85925 15.6711 2.92911 18.4094 4.66126 20.5005C5.32355 21.2971 6.69908 22.7409 8.99162 23.8362C10.1124 24.3341 11.0804 24.6328 11.8446 24.7822H22.7979V20.5005H12.405C8.88973 19.6043 6.29151 16.4677 6.29151 12.7337C6.29151 8.30264 10.0105 4.66817 14.5447 4.66817C19.0788 4.66817 22.7979 8.25285 22.7979 12.7337V20.5005H26.8735V13.4805C26.8735 10.4933 26.8735 9.9954 26.6188 9.14902Z" fill="#0047FF"/>
<path d="M26.8733 24.832H22.7977V28.8346H26.8733V24.832Z" fill="#00BB8F"/>
<path d="M16.9391 10.6426H12.8635V14.6256H16.9391V10.6426Z" fill="#00BB8F"/>
</g>
<path d="M88.4458 18.693L95.5715 9.71404H88.4458V7.73291H96.2425C97.3928 7.73291 98 8.30808 98 9.10692C98 9.58622 97.8402 10.0336 97.4887 10.449L90.363 19.4279H97.7124V21.4091H89.692C88.5417 21.4091 87.9346 20.8339 87.9346 20.0351C87.9346 19.5558 88.0943 19.1084 88.4458 18.693Z" fill="white"/>
<path d="M87.1295 9.71447H84.3815V17.5112C84.3815 18.7893 84.9886 19.4284 86.2348 19.4284H87.0976V21.4095H86.2348C83.6785 21.4095 82.2726 20.0355 82.2726 17.5112V1.98169H84.3815V7.73335H87.1295V9.71447Z" fill="white"/>
<path d="M80.5743 14.5709V21.409H78.4653V19.6516C77.0913 21.0256 75.3978 21.7286 73.4166 21.7286C71.4355 21.7286 69.742 21.0256 68.336 19.6516C66.962 18.2456 66.259 16.5521 66.259 14.5709C66.259 12.5898 66.962 10.8963 68.336 9.52227C69.742 8.11631 71.4355 7.41333 73.4166 7.41333C75.3978 7.41333 77.0913 8.11631 78.4653 9.52227C79.8713 10.8963 80.5743 12.5898 80.5743 14.5709ZM76.9955 18.2776C77.986 17.287 78.4653 16.0728 78.4653 14.5709C78.4653 13.0691 77.986 11.8549 76.9955 10.8643C76.0049 9.87376 74.8226 9.39446 73.4166 9.39446C72.0107 9.39446 70.8284 9.87376 69.8378 10.8643C68.8473 11.8549 68.368 13.0691 68.368 14.5709C68.368 16.0728 68.8473 17.287 69.8378 18.2776C70.8284 19.2681 72.0107 19.7474 73.4166 19.7474C74.8226 19.7474 76.0049 19.2681 76.9955 18.2776Z" fill="white"/>
<path d="M50.662 14.5711V0.000244141H52.7709V9.49048C52.8987 9.33071 53.0905 9.13899 53.3461 8.91531C53.6337 8.69164 54.2088 8.3721 55.0716 7.98866C55.9343 7.60521 56.861 7.41349 57.8196 7.41349C59.8007 7.41349 61.4943 8.11647 62.8683 9.52243C64.2742 10.8964 64.9772 12.59 64.9772 14.5711C64.9772 16.5522 64.2742 18.2458 62.8683 19.6517C61.4943 21.0257 59.8007 21.7287 57.8196 21.7287C55.8385 21.7287 54.1449 21.0257 52.739 19.6517C51.365 18.2458 50.662 16.5522 50.662 14.5711ZM54.2408 10.8645C53.2502 11.855 52.7709 13.0693 52.7709 14.5711C52.7709 16.0729 53.2502 17.2872 54.2408 18.2777C55.2314 19.2683 56.4136 19.7476 57.8196 19.7476C59.2256 19.7476 60.4078 19.2683 61.3984 18.2777C62.389 17.2872 62.8683 16.0729 62.8683 14.5711C62.8683 13.0693 62.389 11.855 61.3984 10.8645C60.4078 9.87392 59.2256 9.39462 57.8196 9.39462C56.4136 9.39462 55.2314 9.87392 54.2408 10.8645Z" fill="white"/>
<path d="M48.9321 14.5709V29.1099H46.8231V19.6835C46.6633 19.8433 46.4716 20.035 46.184 20.2587C45.9284 20.4824 45.3532 20.77 44.4905 21.1534C43.6277 21.5368 42.7011 21.7286 41.7744 21.7286C39.7933 21.7286 38.0998 21.0256 36.6938 19.6516C35.3198 18.2456 34.6168 16.5521 34.6168 14.5709C34.6168 12.5898 35.3198 10.8963 36.6938 9.52227C38.0998 8.11631 39.7933 7.41333 41.7744 7.41333C43.7556 7.41333 45.4491 8.11631 46.8231 9.52227C48.2291 10.8963 48.9321 12.5898 48.9321 14.5709ZM45.3532 18.2776C46.3438 17.287 46.8231 16.0728 46.8231 14.5709C46.8231 13.0691 46.3438 11.8549 45.3532 10.8643C44.3627 9.87376 43.1804 9.39446 41.7744 9.39446C40.3685 9.39446 39.1862 9.87376 38.1956 10.8643C37.2051 11.8549 36.7258 13.0691 36.7258 14.5709C36.7258 16.0728 37.2051 17.287 38.1956 18.2776C39.1862 19.2681 40.3685 19.7474 41.7744 19.7474C43.1804 19.7474 44.3627 19.2681 45.3532 18.2776Z" fill="white"/>
<defs>
<clipPath id="clip0_7270_1849">
<rect width="28.6823" height="28.6823" fill="white" transform="translate(0 0.213867)"/>
</clipPath>
</defs>
</svg>
