<svg width="28" height="28" viewBox="0 0 28 28" fill="none" xmlns="http://www.w3.org/2000/svg">
<path d="M19.8333 10.5C19.8333 15.015 15.9133 18.6667 11.0833 18.6667L9.99834 19.9733L9.35667 20.7434C8.80833 21.3967 7.75832 21.2566 7.39666 20.475L5.83333 17.0333C3.70999 15.54 2.33333 13.1717 2.33333 10.5C2.33333 5.98499 6.25333 2.33333 11.0833 2.33333C14.6067 2.33333 17.6517 4.28167 19.0167 7.08167C19.5417 8.12 19.8333 9.27499 19.8333 10.5Z" stroke="#0047FF" stroke-width="2" stroke-linecap="round" stroke-linejoin="round"/>
<path d="M25.6667 15.0033C25.6667 17.675 24.29 20.0434 22.1667 21.5367L20.6033 24.9783C20.2417 25.76 19.1917 25.9117 18.6433 25.2467L16.9167 23.17C14.0933 23.17 11.5733 21.9217 9.99834 19.9733L11.0833 18.6667C15.9133 18.6667 19.8333 15.015 19.8333 10.5C19.8333 9.27501 19.5417 8.12001 19.0167 7.08168C22.8317 7.95668 25.6667 11.1767 25.6667 15.0033Z" stroke="#0047FF" stroke-width="2" stroke-linecap="round" stroke-linejoin="round"/>
<path d="M8.16667 10.5H14" stroke="#0047FF" stroke-width="2" stroke-linecap="round" stroke-linejoin="round"/>
</svg>
