<svg width="28" height="28" viewBox="0 0 28 28" fill="none" xmlns="http://www.w3.org/2000/svg">
<path d="M14.1867 12.6816C14.07 12.67 13.93 12.67 13.8017 12.6816C11.025 12.5883 8.82001 10.3133 8.82001 7.51331C8.82001 4.65498 11.13 2.33331 14 2.33331C16.8583 2.33331 19.18 4.65498 19.18 7.51331C19.1683 10.3133 16.9633 12.5883 14.1867 12.6816Z" stroke="#0047FF" stroke-width="2" stroke-linecap="round" stroke-linejoin="round"/>
<path d="M8.35334 16.9867C5.53001 18.8767 5.53001 21.9567 8.35334 23.835C11.5617 25.9817 16.8233 25.9817 20.0317 23.835C22.855 21.945 22.855 18.865 20.0317 16.9867C16.835 14.8517 11.5733 14.8517 8.35334 16.9867Z" stroke="#0047FF" stroke-width="2" stroke-linecap="round" stroke-linejoin="round"/>
</svg>
