<svg width="70" height="32" viewBox="0 0 70 32" fill="none" xmlns="http://www.w3.org/2000/svg">
<path d="M59.2726 20.504L67.0289 10.7304H59.2726V8.57397H67.7593C69.0114 8.57397 69.6723 9.20004 69.6723 10.0696C69.6723 10.5913 69.4984 11.0782 69.1158 11.5304L61.3595 21.304H69.3592V23.4604H60.6291C59.377 23.4604 58.7161 22.8343 58.7161 21.9648C58.7161 21.4431 58.89 20.9562 59.2726 20.504Z" fill="#1F1F1F"/>
<path d="M57.84 10.7308H54.8488V19.2175C54.8488 20.6087 55.5096 21.3044 56.8661 21.3044H57.8052V23.4608H56.8661C54.0836 23.4608 52.5532 21.9652 52.5532 19.2175V2.31372H54.8488V8.57437H57.84V10.7308Z" fill="#1F1F1F"/>
<path d="M50.7046 16.0174V23.4606H48.409V21.5476C46.9134 23.0432 45.07 23.8084 42.9135 23.8084C40.7571 23.8084 38.9137 23.0432 37.3833 21.5476C35.8877 20.0172 35.1225 18.1738 35.1225 16.0174C35.1225 13.8609 35.8877 12.0175 37.3833 10.5219C38.9137 8.99151 40.7571 8.22632 42.9135 8.22632C45.07 8.22632 46.9134 8.99151 48.409 10.5219C49.9394 12.0175 50.7046 13.8609 50.7046 16.0174ZM46.809 20.052C47.8873 18.9738 48.409 17.6521 48.409 16.0174C48.409 14.3826 47.8873 13.0609 46.809 11.9827C45.7308 10.9045 44.4439 10.3828 42.9135 10.3828C41.3831 10.3828 40.0962 10.9045 39.018 11.9827C37.9398 13.0609 37.4181 14.3826 37.4181 16.0174C37.4181 17.6521 37.9398 18.9738 39.018 20.052C40.0962 21.1302 41.3831 21.6519 42.9135 21.6519C44.4439 21.6519 45.7308 21.1302 46.809 20.052Z" fill="#1F1F1F"/>
<path d="M18.1451 16.0173V0.156982H20.4407V10.4871C20.5798 10.3131 20.7885 10.1045 21.0668 9.86099C21.3798 9.61752 22.0059 9.26971 22.945 8.85233C23.8841 8.43495 24.8927 8.22627 25.9362 8.22627C28.0926 8.22627 29.936 8.99146 31.4316 10.5218C32.962 12.0174 33.7272 13.8609 33.7272 16.0173C33.7272 18.1737 32.962 20.0172 31.4316 21.5475C29.936 23.0431 28.0926 23.8083 25.9362 23.8083C23.7797 23.8083 21.9363 23.0431 20.4059 21.5475C18.9103 20.0172 18.1451 18.1737 18.1451 16.0173ZM22.0407 11.9827C20.9624 13.0609 20.4407 14.3826 20.4407 16.0173C20.4407 17.652 20.9624 18.9737 22.0407 20.0519C23.1189 21.1302 24.4058 21.6519 25.9362 21.6519C27.4666 21.6519 28.7535 21.1302 29.8317 20.0519C30.9099 18.9737 31.4316 17.652 31.4316 16.0173C31.4316 14.3826 30.9099 13.0609 29.8317 11.9827C28.7535 10.9044 27.4666 10.3827 25.9362 10.3827C24.4058 10.3827 23.1189 10.9044 22.0407 11.9827Z" fill="#1F1F1F"/>
<path d="M16.2621 16.0173V31.8429H13.9665V21.5824C13.7926 21.7563 13.584 21.965 13.2709 22.2084C12.9927 22.4519 12.3666 22.7649 11.4275 23.1823C10.4884 23.5997 9.47975 23.8084 8.47109 23.8084C6.31464 23.8084 4.47123 23.0432 2.94084 21.5476C1.44524 20.0172 0.680054 18.1738 0.680054 16.0173C0.680054 13.8609 1.44524 12.0175 2.94084 10.5219C4.47123 8.99151 6.31464 8.22632 8.47109 8.22632C10.6275 8.22632 12.4709 8.99151 13.9665 10.5219C15.4969 12.0175 16.2621 13.8609 16.2621 16.0173ZM12.3666 20.052C13.4448 18.9738 13.9665 17.6521 13.9665 16.0173C13.9665 14.3826 13.4448 13.0609 12.3666 11.9827C11.2884 10.9045 10.0015 10.3828 8.47109 10.3828C6.9407 10.3828 5.65379 10.9045 4.57557 11.9827C3.49735 13.0609 2.97563 14.3826 2.97563 16.0173C2.97563 17.6521 3.49735 18.9738 4.57557 20.052C5.65379 21.1302 6.9407 21.6519 8.47109 21.6519C10.0015 21.6519 11.2884 21.1302 12.3666 20.052Z" fill="#1F1F1F"/>
</svg>
