<svg width="32" height="32" viewBox="0 0 32 32" fill="none" xmlns="http://www.w3.org/2000/svg">
<g clip-path="url(#clip0_7270_1871)">
<path d="M28.9744 10.1151C28.5862 8.70612 28.0317 7.73064 27.5881 7.08032C26.6454 5.50872 25.5363 4.47905 24.7599 3.82874C22.3754 1.82359 19.2145 0.577148 15.7764 0.577148C8.17919 0.577148 2.0238 6.59258 2.0238 14.017C2.0238 17.2144 3.18834 20.1951 5.07377 22.4712C5.79467 23.3383 7.29193 24.9099 9.78735 26.1021C11.0073 26.644 12.061 26.9692 12.8928 27.1318H24.8154V22.4712H13.5028C9.67645 21.4957 6.8483 18.0815 6.8483 14.017C6.8483 9.19385 10.8964 5.23776 15.8318 5.23776C20.7672 5.23776 24.8154 9.13966 24.8154 14.017V22.4712H29.2517V14.8299C29.2517 11.5784 29.2517 11.0364 28.9744 10.1151Z" fill="#0047FF"/>
<path d="M29.2515 27.186H24.8152V31.5429H29.2515V27.186Z" fill="#00BB8F"/>
<path d="M18.4381 11.741H14.0018V16.0764H18.4381V11.741Z" fill="#00BB8F"/>
</g>
<defs>
<clipPath id="clip0_7270_1871">
<rect width="31.2206" height="31.2206" fill="white" transform="translate(0 0.389404)"/>
</clipPath>
</defs>
</svg>
